# Blender v2.66 (sub 0) OBJ File: 'simpleman1.blend'
# www.blender.org
mtllib simpleman1.mtl
o SketchUp.001_ID10
v -0.896937 2.246312 -0.001122
v -0.866665 2.039937 0.231060
v -0.866665 2.246312 0.231060
v -0.896937 2.039937 -0.001122
v -0.777331 2.039937 0.447496
v -0.818125 2.457886 0.218119
v -0.896937 2.246312 -0.001122
v -0.866665 2.246312 0.231060
v -0.846701 2.457886 -0.001060
v -0.866084 2.246312 -0.233229
v -0.866084 2.039937 -0.233229
v -0.635024 2.039937 0.633436
v -0.715731 2.246313 0.547777
v -0.733795 2.457886 0.422433
v -0.777331 2.246312 0.447496
v -0.817576 2.457886 -0.220166
v -0.866084 2.246312 -0.233229
v -0.746485 2.651204 -0.000934
v -0.776209 2.246312 -0.449440
v -0.449440 2.246312 0.776209
v -0.449440 2.039937 0.776209
v -0.599457 2.457886 0.597959
v -0.635024 2.246312 0.633436
v -0.699917 2.650151 0.275574
v -0.732735 2.457886 -0.424268
v -0.776209 2.246312 -0.449440
v -0.597315 2.817378 0.077847
v -0.633436 2.246312 -0.635024
v -0.714357 2.039938 -0.549568
v -0.233229 2.246312 0.866084
v -0.233229 2.039937 0.866084
v -0.424268 2.457886 0.732735
v -0.449440 2.246312 0.776209
v -0.597959 2.457886 -0.599457
v -0.633436 2.246312 -0.635024
v -0.699250 2.650145 -0.277298
v -0.418908 2.938670 0.111694
v -0.447496 2.039937 -0.777331
v -0.447496 2.246312 -0.777331
v -0.001122 2.246312 0.896937
v -0.001122 2.039937 0.896937
v -0.220166 2.457886 0.817576
v -0.233229 2.246312 0.866084
v -0.462186 2.661865 0.585598
v -0.485415 2.814643 0.366725
v -0.447496 2.246312 -0.777331
v -0.422433 2.457886 -0.733795
v -0.527184 2.651204 -0.528505
v -0.563265 2.814631 -0.230081
v -0.231060 2.039937 -0.866665
v 0.231060 2.039937 0.866665
v 0.231031 2.246314 0.866663
v -0.231060 2.246312 -0.866665
v -0.372433 2.651204 -0.646942
v -0.000000 3.043237 0.000000
v 0.001122 2.039937 -0.896937
v 0.001122 2.246312 -0.896937
v -0.231031 2.246314 -0.866663
v 0.447496 2.246312 0.777331
v 0.447496 2.039937 0.777331
v 0.218119 2.457886 0.818125
v -0.001138 2.246312 0.896944
v 0.231060 2.246312 0.866665
v -0.001064 2.457893 0.846703
v -0.102080 2.652308 0.744979
v -0.235530 2.820497 0.551359
v -0.254577 2.940313 0.338854
v 0.001115 2.246315 -0.896941
v 0.001060 2.457886 -0.846701
v -0.218118 2.457887 -0.818124
v -0.363048 2.818222 -0.482085
v -0.364697 2.942456 -0.219556
v 0.233229 2.039937 -0.866084
v 0.233229 2.246312 -0.866084
v 0.633436 2.246312 0.635024
v 0.422433 2.457886 0.733795
v 0.447496 2.246312 0.777331
v 0.192307 2.651205 0.721288
v -0.197070 3.018749 0.113447
v -0.192305 2.651205 -0.721290
v 0.233229 2.246312 -0.866084
v 0.220166 2.457886 -0.817576
v 0.449440 2.039937 -0.776209
v 0.714357 2.039938 0.549568
v 0.776209 2.246312 0.449440
v 0.597959 2.457886 0.599457
v 0.633436 2.246312 0.635024
v 0.372433 2.651204 0.646942
v 0.069199 2.815172 0.601004
v -0.069201 2.815171 -0.601007
v 0.102082 2.652308 -0.744978
v 0.449440 2.246312 -0.776209
v 0.424268 2.457886 -0.732735
v 0.635024 2.039937 -0.633436
v 0.549568 2.246313 -0.714357
v 0.866084 2.039937 0.233229
v 0.866084 2.246312 0.233229
v 0.776209 2.246312 0.449440
v 0.732735 2.457886 0.424268
v 0.527184 2.651204 0.528505
v -0.004895 2.944127 0.419491
v -0.112316 2.944118 -0.404211
v 0.635024 2.246312 -0.633436
v 0.599457 2.457886 -0.597959
v 0.777331 2.246312 -0.447496
v 0.777331 2.039937 -0.447496
v 0.896937 2.039937 0.001122
v 0.896937 2.246312 0.001122
v 0.866084 2.246312 0.233229
v 0.817576 2.457886 0.220166
v 0.363072 2.818203 0.482060
v -0.144949 3.018944 -0.176315
v 0.235576 2.820516 -0.551340
v 0.462229 2.661865 -0.585586
v 0.777331 2.246312 -0.447496
v 0.733795 2.457886 -0.422433
v 0.866665 2.246312 -0.231060
v 0.866665 2.039937 -0.231060
v 0.896937 2.246312 0.001122
v 0.846701 2.457886 0.001060
v 0.699229 2.650157 0.277287
v 0.253702 2.940292 0.339496
v 0.028456 3.017721 0.218300
v 0.866665 2.246312 -0.231060
v 0.818125 2.457886 -0.218119
v 0.746485 2.651204 0.000934
v 0.563271 2.814612 0.230056
v 0.207039 2.942450 -0.371928
v 0.485453 2.814625 -0.366771
v 0.690773 2.661692 -0.276183
v 0.597322 2.817372 -0.077853
v 0.418622 2.938667 0.112723
v 0.389874 2.940295 -0.166262
v 0.208198 3.017622 0.086540
v 0.137220 3.020124 -0.178367
vn -0.999969 0.000000 -0.001251
vn -0.966247 0.000000 0.257607
vn -0.962920 0.014039 0.269387
vn -0.876400 0.006623 0.481491
vn -0.793908 0.021760 0.607593
vn -0.908658 0.349162 0.228919
vn -0.972930 0.230995 -0.001190
vn -0.940092 0.230995 0.250618
vn -0.935423 0.353435 -0.001160
vn -0.965575 0.000000 -0.260018
vn -0.962249 -0.014039 -0.271798
vn -0.693747 0.006623 0.720176
vn -0.804010 0.353862 0.477828
vn -0.843196 0.230995 0.485397
vn -0.908078 0.349132 -0.231208
vn -0.939482 0.230995 -0.252968
vn -0.765435 0.563311 0.311075
vn -0.829096 0.559038 -0.006623
vn -0.875179 -0.006623 -0.483688
vn -0.792383 -0.021760 -0.609607
vn -0.511582 0.014039 0.859096
vn -0.501053 0.000000 0.865383
vn -0.672048 0.349620 0.652760
vn -0.688833 0.230995 0.687094
vn -0.808527 0.345195 -0.476516
vn -0.841975 0.230995 -0.487503
vn -0.769524 0.561418 -0.304300
vn -0.659444 0.748131 0.073305
vn -0.691916 -0.006623 -0.721915
vn -0.260018 0.000000 0.965575
vn -0.457198 0.353771 0.815943
vn -0.487503 0.230995 0.841975
vn -0.506912 0.571856 0.644948
vn -0.539628 0.738701 0.403821
vn -0.662862 0.344951 -0.664510
vn -0.687094 0.230995 -0.688833
vn -0.618336 0.746300 -0.246193
vn -0.509415 -0.014039 -0.860378
vn -0.498886 0.000000 -0.866634
vn -0.001221 0.000000 0.999969
vn -0.256966 0.350505 0.900601
vn -0.252998 0.230995 0.939451
vn -0.461562 0.880856 0.105014
vn -0.485397 0.230995 -0.843196
vn -0.468276 0.344951 -0.813440
vn -0.597308 0.564714 -0.569445
vn -0.404279 0.885647 -0.228370
vn -0.257607 0.000000 -0.966247
vn -0.257576 0.000031 -0.966247
vn 0.257576 0.000031 0.966247
vn 0.257607 0.000000 0.966247
vn 0.006531 0.342845 0.939360
vn -0.001221 0.231025 0.972930
vn -0.124668 0.567400 0.813929
vn -0.257332 0.745476 0.614826
vn -0.273019 0.886624 0.373272
vn -0.250649 0.230995 -0.940092
vn -0.241798 0.344951 -0.906919
vn -0.404584 0.563066 -0.720573
vn -0.395398 0.751701 -0.527787
vn -0.218360 0.968413 0.120151
vn -0.163091 0.968322 -0.189001
vn 0.001221 0.000000 -0.999969
vn 0.498886 0.000000 0.866634
vn 0.509415 -0.014039 0.860378
vn 0.241798 0.344951 0.906919
vn 0.250649 0.230995 0.940092
vn 0.001190 0.231025 -0.972930
vn -0.006531 0.342845 -0.939360
vn -0.208960 0.567522 -0.796381
vn -0.000855 0.999969 0.001465
vn 0.260018 0.000000 -0.965575
vn 0.271798 0.014039 -0.962249
vn 0.691916 -0.006623 0.721915
vn 0.792383 -0.021760 0.609607
vn 0.468276 0.344951 0.813440
vn 0.485397 0.230995 0.843196
vn 0.208960 0.567553 0.796350
vn 0.085208 0.747642 0.658559
vn -0.006867 0.886502 0.462630
vn 0.124668 0.567370 -0.813929
vn 0.252968 0.230995 -0.939451
vn 0.256935 0.350505 -0.900601
vn -0.073580 0.750389 -0.656850
vn -0.113346 0.885769 -0.450026
vn 0.483688 0.006623 -0.875179
vn 0.609607 0.021760 -0.792383
vn 0.875179 -0.006623 0.483688
vn 0.662862 0.344951 0.664510
vn 0.687094 0.230995 0.688833
vn 0.404584 0.563097 0.720542
vn 0.021058 0.968078 0.249702
vn 0.487503 0.230995 -0.841975
vn 0.457198 0.353771 -0.815943
vn 0.721915 0.006623 -0.691916
vn 0.962249 -0.014039 0.271798
vn 0.965575 0.000000 0.260018
vn 0.841975 0.230995 0.487503
vn 0.808527 0.345225 0.476485
vn 0.597308 0.564745 0.569445
vn 0.396771 0.753258 0.524522
vn 0.251350 0.746422 -0.616138
vn 0.506760 0.571673 -0.645253
vn 0.688833 0.230995 -0.687094
vn 0.672048 0.349590 -0.652760
vn 0.860378 0.014039 -0.509415
vn 0.866634 0.000000 -0.498886
vn 0.999969 0.000000 0.001251
vn 0.939482 0.230995 0.252968
vn 0.908078 0.349162 0.231208
vn 0.769494 0.561449 0.304300
vn 0.286538 0.880154 0.378368
vn 0.148778 0.969268 -0.195776
vn 0.216651 0.881375 -0.419782
vn 0.843196 0.230995 -0.485397
vn 0.804315 0.355174 -0.476333
vn 0.966247 0.000000 -0.257607
vn 0.972930 0.230995 0.001190
vn 0.937010 0.349193 0.005768
vn 0.614154 0.744407 0.261940
vn 0.536851 0.740471 -0.404248
vn 0.756767 0.572771 -0.315012
vn 0.940092 0.230995 -0.250618
vn 0.908475 0.344707 -0.236183
vn 0.826655 0.562578 0.010743
vn 0.459883 0.878872 0.126621
vn 0.234260 0.968047 0.089114
vn 0.658528 0.748161 -0.081088
vn 0.429365 0.885617 -0.176855
usemtl material
s 1
f 1//1 2//2 3//3
f 2//2 1//1 4//1
f 3//3 5//4 13//5
f 5//4 3//3 2//2
f 6//6 7//7 8//8
f 7//7 6//6 9//9
f 4//1 1//1 10//10
f 4//1 10//10 11//11
f 12//12 13//5 5//4
f 14//13 8//8 15//14
f 8//8 14//13 6//6
f 16//15 7//7 9//9
f 7//7 16//15 17//16
f 24//17 9//9 6//6
f 9//9 24//17 18//18
f 19//19 11//11 10//10
f 11//11 19//19 29//20
f 20//21 12//12 21//22
f 12//12 20//21 13//5
f 22//23 15//14 23//24
f 15//14 22//23 14//13
f 24//17 6//6 14//13
f 25//25 17//16 16//15
f 17//16 25//25 26//26
f 36//27 9//9 18//18
f 9//9 36//27 16//15
f 27//28 18//18 24//17
f 28//29 29//20 19//19
f 30//30 21//22 31//30
f 21//22 30//30 20//21
f 32//31 23//24 33//32
f 23//24 32//31 22//23
f 44//33 14//13 22//23
f 14//13 44//33 24//17
f 24//17 45//34 27//28
f 34//35 26//26 25//25
f 26//26 34//35 35//36
f 16//15 36//27 25//25
f 49//37 18//18 27//28
f 18//18 49//37 36//27
f 28//29 38//38 29//20
f 38//38 28//29 39//39
f 40//40 31//30 41//40
f 31//30 40//40 30//30
f 42//41 33//32 43//42
f 33//32 42//41 32//31
f 44//33 22//23 32//31
f 44//33 45//34 24//17
f 45//34 37//43 27//28
f 34//35 46//44 35//36
f 46//44 34//35 47//45
f 48//46 25//25 36//27
f 25//25 48//46 34//35
f 37//43 49//37 27//28
f 49//37 37//43 72//47
f 39//39 50//48 38//38
f 50//48 39//39 58//49
f 52//50 41//40 51//51
f 41//40 52//50 40//40
f 64//52 43//42 62//53
f 43//42 64//52 42//41
f 65//54 32//31 42//41
f 32//31 65//54 44//33
f 45//34 44//33 66//55
f 37//43 45//34 67//56
f 47//45 53//57 46//44
f 53//57 47//45 70//58
f 48//46 47//45 34//35
f 47//45 48//46 54//59
f 49//37 48//46 36//27
f 48//46 49//37 71//60
f 79//61 72//47 37//43
f 72//47 79//61 112//62
f 58//49 56//63 50//48
f 56//63 58//49 57//63
f 59//64 51//51 60//65
f 51//51 59//64 52//50
f 61//66 62//53 63//67
f 62//53 61//66 64//52
f 65//54 42//41 64//52
f 66//55 44//33 65//54
f 66//55 67//56 45//34
f 67//56 79//61 37//43
f 70//58 68//68 53//57
f 68//68 70//58 69//69
f 54//59 70//58 47//45
f 70//58 54//59 80//70
f 71//60 54//59 48//46
f 72//47 71//60 49//37
f 55//71 112//62 79//61
f 57//63 73//72 56//63
f 73//72 57//63 74//73
f 75//74 60//65 84//75
f 60//65 75//74 59//64
f 76//76 63//67 77//77
f 63//67 76//76 61//66
f 78//78 64//52 61//66
f 64//52 78//78 65//54
f 65//54 89//79 66//55
f 67//56 66//55 101//80
f 70//58 80//70 69//69
f 69//69 80//70 91//81
f 69//69 81//82 68//68
f 81//82 69//69 82//83
f 71//60 80//70 54//59
f 80//70 71//60 90//84
f 71//60 72//47 102//85
f 74//73 83//86 73//72
f 83//86 74//73 95//87
f 75//74 84//75 85//88
f 86//89 77//77 87//90
f 77//77 86//89 76//76
f 88//91 61//66 76//76
f 61//66 88//91 78//78
f 78//78 89//79 65//54
f 89//79 101//80 66//55
f 101//80 79//61 67//56
f 79//61 101//80 123//92
f 80//70 90//84 91//81
f 91//81 82//83 69//69
f 82//83 92//93 81//82
f 92//93 82//83 93//94
f 102//85 90//84 71//60
f 112//62 102//85 72//47
f 95//87 94//95 83//86
f 96//96 85//88 84//75
f 85//88 96//96 97//97
f 98//98 86//89 87//90
f 86//89 98//98 99//99
f 100//100 76//76 86//89
f 76//76 100//100 88//91
f 111//101 78//78 88//91
f 78//78 111//101 89//79
f 55//71 79//61 123//92
f 91//81 90//84 113//102
f 91//81 93//94 82//83
f 93//94 91//81 114//103
f 93//94 103//104 92//93
f 103//104 93//94 104//105
f 94//95 105//106 106//107
f 105//106 94//95 95//87
f 107//108 97//97 96//96
f 97//97 107//108 108//108
f 109//109 99//99 98//98
f 99//99 109//109 110//110
f 99//99 100//100 86//89
f 100//100 99//99 121//111
f 111//101 88//91 100//100
f 89//79 122//112 101//80
f 122//112 89//79 111//101
f 102//85 112//62 135//113
f 128//114 90//84 102//85
f 90//84 128//114 113//102
f 113//102 114//103 91//81
f 114//103 104//105 93//94
f 115//115 104//105 116//116
f 104//105 115//115 103//104
f 106//107 117//117 118//117
f 117//117 106//107 105//106
f 118//117 108//108 107//108
f 108//108 118//117 117//117
f 119//118 110//110 109//109
f 110//110 119//118 120//119
f 110//110 121//111 99//99
f 100//100 127//120 111//101
f 127//120 100//100 121//111
f 123//92 101//80 122//112
f 112//62 55//71 135//113
f 102//85 135//113 128//114
f 129//121 114//103 113//102
f 116//116 114//103 130//122
f 114//103 116//116 104//105
f 124//123 116//116 125//124
f 116//116 124//123 115//115
f 124//123 120//119 119//118
f 120//119 124//123 125//124
f 120//119 121//111 110//110
f 121//111 120//119 126//125
f 111//101 132//126 122//112
f 132//126 111//101 127//120
f 122//112 134//127 123//92
f 113//102 128//114 129//121
f 114//103 129//121 130//122
f 130//122 125//124 116//116
f 125//124 126//125 120//119
f 126//125 125//124 130//122
f 126//125 127//120 121//111
f 127//120 126//125 131//128
f 134//127 122//112 132//126
f 134//127 55//71 123//92
f 133//129 129//121 128//114
f 130//122 129//121 131//128
f 130//122 131//128 126//125
f 132//126 127//120 131//128
f 128//114 135//113 133//129
f 129//121 133//129 131//128
f 132//126 131//128 133//129
f 134//127 133//129 135//113
f 133//129 134//127 132//126
f 134//127 135//113 55//71
o SketchUp_ID2
v -0.945873 0.000000 -0.546100
v -0.866084 0.000000 -0.233229
v -0.896937 0.000000 -0.001122
v -0.772302 0.000000 -0.772302
v -0.776209 0.000000 -0.449440
v -0.633436 0.000000 -0.635024
v -0.546100 0.000000 -0.945873
v -0.447496 0.000000 -0.777331
v -0.282682 0.000000 -1.054984
v -0.231060 0.000000 -0.866665
v 0.000000 0.000000 -1.092200
v 0.001122 0.000000 -0.896937
v 0.282682 0.000000 -1.054984
v 0.233229 0.000000 -0.866084
v 0.449440 0.000000 -0.776209
v 0.546100 0.000000 -0.945873
v 0.635024 0.000000 -0.633436
v 0.772302 0.000000 -0.772302
v 0.777331 0.000000 -0.447496
v 0.945873 0.000000 -0.546100
v 0.866665 0.000000 -0.231060
v 0.896937 0.000000 0.001122
v 0.945873 0.000000 0.546100
v 1.054984 0.000000 0.282682
v 1.054984 0.000000 -0.282682
v 1.092200 0.000000 0.000000
v -1.054984 0.000000 -0.282682
v -1.054984 0.000000 0.282682
v -1.092200 0.000000 -0.000000
v -0.945873 0.000000 0.546100
v -0.866665 0.000000 0.231060
v -0.772302 0.000000 0.772302
v -0.777331 0.000000 0.447496
v -0.635024 0.000000 0.633436
v -0.546100 0.000000 0.945873
v -0.449440 0.000000 0.776209
v -0.282682 0.000000 1.054984
v -0.233229 0.000000 0.866084
v -0.000000 0.000000 1.092200
v -0.001122 0.000000 0.896937
v 0.231060 0.000000 0.866665
v 0.282682 0.000000 1.054984
v 0.447496 0.000000 0.777331
v 0.546100 0.000000 0.945873
v 0.633436 0.000000 0.635024
v 0.772302 0.000000 0.772302
v 0.776209 0.000000 0.449440
v 0.866084 0.000000 0.233229
v 0.000000 2.039937 -1.092200
v 0.282682 0.000000 -1.054984
v 0.000000 0.000000 -1.092200
v 0.282682 2.039937 -1.054984
v 0.546100 0.000000 -0.945873
v 0.546100 2.039937 -0.945873
v 0.772302 0.000000 -0.772302
v 0.772302 2.039937 -0.772302
v 0.945873 2.039937 -0.546100
v 0.945873 0.000000 -0.546100
v 1.054984 2.039937 -0.282682
v 1.054984 0.000000 -0.282682
v 1.092200 2.039937 0.000000
v 1.092200 0.000000 0.000000
v 1.054984 2.039937 0.282682
v 1.054984 0.000000 0.282682
v 0.945873 2.039937 0.546100
v 0.945873 0.000000 0.546100
v 0.772302 2.039937 0.772302
v 0.772302 0.000000 0.772302
v 0.546100 0.000000 0.945873
v 0.546100 2.039937 0.945873
v 0.282682 0.000000 1.054984
v 0.282682 2.039937 1.054984
v -0.000000 0.000000 1.092200
v -0.000000 2.039937 1.092200
v -0.282682 0.000000 1.054984
v -0.282682 2.039937 1.054984
v -0.546100 0.000000 0.945873
v -0.546100 2.039937 0.945873
v -0.772302 0.000000 0.772302
v -0.772302 2.039937 0.772302
v -0.945873 2.039937 0.546100
v -0.945873 0.000000 0.546100
v -1.054984 2.039937 0.282682
v -1.054984 0.000000 0.282682
v -1.092200 2.039937 -0.000000
v -1.092200 0.000000 -0.000000
v -1.054984 2.039937 -0.282682
v -1.054984 0.000000 -0.282682
v -0.945873 2.039937 -0.546100
v -0.945873 0.000000 -0.546100
v -0.772302 2.039937 -0.772302
v -0.772302 0.000000 -0.772302
v -0.546100 0.000000 -0.945873
v -0.546100 2.039937 -0.945873
v -0.282682 0.000000 -1.054984
v -0.282682 2.039937 -1.054984
v -1.054984 2.039937 0.282682
v -1.054984 2.039937 -0.282682
v -1.092200 2.039937 -0.000000
v -0.945873 2.039937 0.546100
v -0.945873 2.039937 -0.546100
v -0.896937 2.039937 -0.001122
v -0.866665 2.039937 0.231060
v -0.772302 2.039937 0.772302
v -0.777331 2.039937 0.447496
v -0.635024 2.039937 0.633436
v -0.546100 2.039937 0.945873
v -0.449440 2.039937 0.776209
v -0.282682 2.039937 1.054984
v -0.233229 2.039937 0.866084
v -0.000000 2.039937 1.092200
v -0.001122 2.039937 0.896937
v 0.231060 2.039937 0.866665
v 0.282682 2.039937 1.054984
v 0.447496 2.039937 0.777331
v 0.546100 2.039937 0.945873
v 0.633436 2.039937 0.635024
v 0.772302 2.039937 0.772302
v 0.776209 2.039937 0.449440
v 0.945873 2.039937 0.546100
v 0.866084 2.039937 0.233229
v 0.896937 2.039937 0.001122
v -0.866084 2.039937 -0.233229
v -0.772302 2.039937 -0.772302
v -0.776209 2.039937 -0.449440
v -0.633436 2.039937 -0.635024
v -0.546100 2.039937 -0.945873
v -0.447496 2.039937 -0.777331
v -0.282682 2.039937 -1.054984
v -0.231060 2.039937 -0.866665
v 0.000000 2.039937 -1.092200
v 0.001122 2.039937 -0.896937
v 0.282682 2.039937 -1.054984
v 0.233229 2.039937 -0.866084
v 0.449440 2.039937 -0.776209
v 0.546100 2.039937 -0.945873
v 0.635024 2.039937 -0.633436
v 0.772302 2.039937 -0.772302
v 0.777331 2.039937 -0.447496
v 0.945873 2.039937 -0.546100
v 0.866665 2.039937 -0.231060
v 1.054984 2.039937 0.282682
v 1.054984 2.039937 -0.282682
v 1.092200 2.039937 0.000000
vn 0.000000 -1.000000 -0.000000
vn -0.000000 1.000000 0.000000
vn 0.000000 0.000000 -1.000000
vn 0.258797 0.000000 -0.965911
vn 0.000000 0.000000 -0.999969
vn 0.499985 0.000000 -0.866024
vn 0.707083 0.000000 -0.707083
vn 0.866024 0.000000 -0.499985
vn 0.965911 0.000000 -0.258797
vn 1.000000 0.000000 0.000000
vn 0.999969 0.000000 0.000000
vn 0.965911 0.000000 0.258797
vn 0.866024 0.000000 0.499985
vn 0.707083 0.000000 0.707083
vn 0.499985 0.000000 0.866024
vn 0.258797 0.000000 0.965911
vn 0.000000 0.000000 1.000000
vn -0.258797 0.000000 0.965911
vn -0.499985 0.000000 0.866024
vn -0.707083 0.000000 0.707083
vn -0.866024 0.000000 0.499985
vn -0.965911 0.000000 0.258797
vn -1.000000 0.000000 0.000000
vn -0.965911 0.000000 -0.258797
vn -0.866024 0.000000 -0.499985
vn -0.707083 0.000000 -0.707083
vn -0.499985 0.000000 -0.866024
vn -0.258797 0.000000 -0.965911
usemtl material
s off
f 136//130 137//130 138//130
f 137//130 136//130 139//130
f 137//130 139//130 140//130
f 140//130 139//130 141//130
f 141//130 139//130 142//130
f 141//130 142//130 143//130
f 143//130 142//130 144//130
f 143//130 144//130 145//130
f 145//130 144//130 146//130
f 145//130 146//130 147//130
f 147//130 146//130 148//130
f 147//130 148//130 149//130
f 149//130 148//130 150//130
f 150//130 148//130 151//130
f 150//130 151//130 152//130
f 152//130 151//130 153//130
f 152//130 153//130 154//130
f 154//130 153//130 155//130
f 154//130 155//130 156//130
f 156//130 155//130 157//130
f 157//130 155//130 158//130
f 158//130 155//130 159//130
f 159//130 155//130 160//130
f 159//130 160//130 161//130
f 162//130 163//130 164//130
f 163//130 162//130 165//130
f 162//130 136//130 165//130
f 165//130 136//130 138//130
f 165//130 138//130 166//130
f 165//130 166//130 167//130
f 167//130 166//130 168//130
f 167//130 168//130 169//130
f 167//130 169//130 170//130
f 170//130 169//130 171//130
f 170//130 171//130 172//130
f 172//130 171//130 173//130
f 172//130 173//130 174//130
f 174//130 173//130 175//130
f 174//130 175//130 176//130
f 174//130 176//130 177//130
f 177//130 176//130 178//130
f 177//130 178//130 179//130
f 179//130 178//130 180//130
f 179//130 180//130 181//130
f 181//130 180//130 182//130
f 181//130 182//130 158//130
f 158//130 182//130 183//130
f 158//130 183//130 157//130
f 232//131 233//131 234//131
f 233//131 232//131 235//131
f 233//131 235//131 236//131
f 236//131 235//131 237//131
f 237//131 235//131 238//131
f 238//131 235//131 239//131
f 238//131 239//131 240//131
f 240//131 239//131 241//131
f 241//131 239//131 242//131
f 241//131 242//131 243//131
f 243//131 242//131 244//131
f 243//131 244//131 245//131
f 245//131 244//131 246//131
f 245//131 246//131 247//131
f 247//131 246//131 248//131
f 248//131 246//131 249//131
f 248//131 249//131 250//131
f 250//131 249//131 251//131
f 250//131 251//131 252//131
f 252//131 251//131 253//131
f 252//131 253//131 254//131
f 254//131 253//131 255//131
f 254//131 255//131 256//131
f 256//131 255//131 257//131
f 236//131 258//131 259//131
f 258//131 236//131 237//131
f 259//131 258//131 260//131
f 259//131 260//131 261//131
f 259//131 261//131 262//131
f 262//131 261//131 263//131
f 262//131 263//131 264//131
f 264//131 263//131 265//131
f 264//131 265//131 266//131
f 266//131 265//131 267//131
f 266//131 267//131 268//131
f 268//131 267//131 269//131
f 268//131 269//131 270//131
f 268//131 270//131 271//131
f 271//131 270//131 272//131
f 271//131 272//131 273//131
f 273//131 272//131 274//131
f 273//131 274//131 275//131
f 275//131 274//131 276//131
f 275//131 276//131 257//131
f 275//131 257//131 255//131
f 275//131 255//131 277//131
f 275//131 277//131 278//131
f 278//131 277//131 279//131
s 1
f 184//132 185//133 186//134
f 185//133 184//132 187//133
f 187//133 188//135 185//133
f 188//135 187//133 189//135
f 189//135 190//136 188//135
f 190//136 189//135 191//136
f 190//136 192//137 193//137
f 192//137 190//136 191//136
f 193//137 194//138 195//138
f 194//138 193//137 192//137
f 195//138 196//139 197//140
f 196//139 195//138 194//138
f 197//140 198//141 199//141
f 198//141 197//140 196//139
f 199//141 200//142 201//142
f 200//142 199//141 198//141
f 201//142 202//143 203//143
f 202//143 201//142 200//142
f 202//143 204//144 203//143
f 204//144 202//143 205//144
f 205//144 206//145 204//144
f 206//145 205//144 207//145
f 207//145 208//146 206//145
f 208//146 207//145 209//146
f 209//146 210//147 208//146
f 210//147 209//146 211//147
f 211//147 212//148 210//147
f 212//148 211//147 213//148
f 213//148 214//149 212//148
f 214//149 213//148 215//149
f 216//150 214//149 215//149
f 214//149 216//150 217//150
f 218//151 217//150 216//150
f 217//150 218//151 219//151
f 220//152 219//151 218//151
f 219//151 220//152 221//152
f 222//153 221//152 220//152
f 221//152 222//153 223//153
f 224//154 223//153 222//153
f 223//153 224//154 225//154
f 226//155 225//154 224//154
f 225//154 226//155 227//155
f 226//155 228//156 227//155
f 228//156 226//155 229//156
f 229//156 230//157 228//156
f 230//157 229//156 231//157
f 231//157 186//134 230//157
f 186//134 231//157 184//132
